<svg width="327" height="34" viewBox="0 0 327 34" fill="none" xmlns="http://www.w3.org/2000/svg">
<path d="M39.1416 33.47C36.5916 33.47 34.2366 33.08 32.0766 32.3C29.9466 31.49 28.0866 30.35 26.4966 28.88C24.9366 27.41 23.7216 25.67 22.8516 23.66C21.9816 21.65 21.5466 19.43 21.5466 17C21.5466 14.57 21.9816 12.35 22.8516 10.34C23.7216 8.33 24.9516 6.59 26.5416 5.12C28.1316 3.65 30.0066 2.525 32.1666 1.745C34.3566 0.934999 36.7566 0.529999 39.3666 0.529999C42.4866 0.529999 45.2616 1.055 47.6916 2.105C50.1516 3.155 52.1766 4.655 53.7666 6.605L46.9716 12.59C45.9816 11.45 44.9016 10.595 43.7316 10.025C42.5916 9.425 41.3166 9.125 39.9066 9.125C38.7366 9.125 37.6716 9.305 36.7116 9.665C35.7816 10.025 34.9866 10.55 34.3266 11.24C33.6666 11.93 33.1566 12.755 32.7966 13.715C32.4366 14.675 32.2566 15.77 32.2566 17C32.2566 18.17 32.4366 19.25 32.7966 20.24C33.1566 21.2 33.6666 22.025 34.3266 22.715C34.9866 23.405 35.7666 23.945 36.6666 24.335C37.5966 24.695 38.6316 24.875 39.7716 24.875C40.9716 24.875 42.1416 24.68 43.2816 24.29C44.4216 23.87 45.6366 23.165 46.9266 22.175L52.8666 29.465C50.9466 30.755 48.7566 31.745 46.2966 32.435C43.8366 33.125 41.4516 33.47 39.1416 33.47ZM43.6416 28.115V16.145H52.8666V29.465L43.6416 28.115Z" fill="#A8B7D1"/>
<path d="M16.0616 0.529999C19.1216 0.529999 21.8216 1.145 24.1616 2.375C26.5016 3.575 28.3166 5.345 29.6066 7.685C30.9266 9.995 31.5866 12.755 31.5866 15.965V32.75H20.9666V26.405H10.9766V32.75H0.536621V15.965C0.536621 12.755 1.18162 9.995 2.47162 7.685C3.79162 5.345 5.62162 3.575 7.96162 2.375C10.3016 1.145 13.0016 0.529999 16.0616 0.529999ZM20.9666 18.395V15.065C20.9666 13.115 20.5016 11.645 19.5716 10.655C18.6716 9.635 17.4716 9.125 15.9716 9.125C14.4716 9.125 13.2566 9.635 12.3266 10.655C11.4266 11.645 10.9766 13.115 10.9766 15.065V18.395H20.9666Z" fill="white"/>
<path d="M73.6916 8.15C75.3416 8.15 76.7916 8.48333 78.0416 9.15C79.3083 9.8 80.2833 10.7583 80.9666 12.025C81.6666 13.275 82.0166 14.7833 82.0166 16.55V26H77.0666V22.125H70.2416V26H65.3666V16.55C65.3666 14.7833 65.7083 13.275 66.3916 12.025C67.0916 10.7583 68.0666 9.8 69.3166 9.15C70.5833 8.48333 72.0416 8.15 73.6916 8.15ZM77.0666 18.3V16.125C77.0666 14.8417 76.7583 13.875 76.1416 13.225C75.525 12.575 74.7 12.25 73.6666 12.25C72.6166 12.25 71.7833 12.575 71.1666 13.225C70.55 13.875 70.2416 14.8417 70.2416 16.125V18.3H77.0666Z" fill="#EAEDF4"/>
<path d="M89.7653 12.95H92.9903V16.5H89.8903V26H85.1403V12.6C85.1403 10.95 85.6319 9.64167 86.6153 8.675C87.6153 7.70833 89.0069 7.225 90.7903 7.225C91.3903 7.225 91.9736 7.28333 92.5403 7.4C93.1069 7.51667 93.5736 7.69167 93.9403 7.925L92.7653 11.275C92.2986 11.0083 91.8236 10.875 91.3403 10.875C90.8403 10.875 90.4486 11.025 90.1653 11.325C89.8986 11.625 89.7653 12.0667 89.7653 12.65V12.95Z" fill="#EAEDF4"/>
<path d="M101.839 22.6C102.489 22.6 103.047 22.5083 103.513 22.325C103.997 22.1417 104.48 21.8417 104.964 21.425L107.438 24.025C106.155 25.4917 104.238 26.225 101.688 26.225C100.105 26.225 98.7135 25.925 97.5135 25.325C96.3135 24.725 95.3802 23.8917 94.7135 22.825C94.0635 21.7583 93.7385 20.55 93.7385 19.2C93.7385 17.8667 94.0635 16.675 94.7135 15.625C95.3635 14.5583 96.2552 13.725 97.3885 13.125C98.5385 12.525 99.8218 12.225 101.239 12.225C102.555 12.225 103.755 12.5 104.839 13.05C105.939 13.5833 106.814 14.375 107.464 15.425C108.114 16.4583 108.438 17.6917 108.438 19.125L98.7635 20.975C99.2802 22.0583 100.305 22.6 101.839 22.6ZM101.263 15.6C100.447 15.6 99.7802 15.8583 99.2635 16.375C98.7468 16.875 98.4552 17.6 98.3885 18.55L103.888 17.475C103.722 16.9083 103.405 16.4583 102.938 16.125C102.472 15.775 101.913 15.6 101.263 15.6Z" fill="#EAEDF4"/>
<path d="M116.779 21.25L115.379 22.675V26H110.629V7.45H115.379V17.175L120.229 12.45H125.854L120.229 18.25L126.329 26H120.579L116.779 21.25Z" fill="#EAEDF4"/>
<path d="M136.592 12.225C138.276 12.225 139.626 12.725 140.642 13.725C141.676 14.725 142.192 16.2333 142.192 18.25V26H137.442V19.025C137.442 17.175 136.701 16.25 135.217 16.25C134.401 16.25 133.742 16.5167 133.242 17.05C132.759 17.5833 132.517 18.3833 132.517 19.45V26H127.767V7.45H132.517V13.7C133.034 13.2167 133.642 12.85 134.342 12.6C135.042 12.35 135.792 12.225 136.592 12.225Z" fill="#EAEDF4"/>
<path d="M145.174 12.45H149.924V26H145.174V12.45ZM147.549 10.95C146.683 10.95 145.983 10.7083 145.449 10.225C144.916 9.74167 144.649 9.14167 144.649 8.425C144.649 7.70833 144.916 7.10833 145.449 6.625C145.983 6.14167 146.683 5.9 147.549 5.9C148.416 5.9 149.116 6.13333 149.649 6.6C150.183 7.05 150.449 7.63333 150.449 8.35C150.449 9.1 150.183 9.725 149.649 10.225C149.116 10.7083 148.416 10.95 147.549 10.95Z" fill="#EAEDF4"/>
<path d="M167.411 7.45V26H162.886V24.65C162.003 25.7 160.678 26.225 158.911 26.225C157.678 26.225 156.553 25.9417 155.536 25.375C154.52 24.7917 153.711 23.9667 153.111 22.9C152.528 21.8333 152.236 20.6 152.236 19.2C152.236 17.8 152.528 16.575 153.111 15.525C153.711 14.4583 154.52 13.6417 155.536 13.075C156.553 12.5083 157.678 12.225 158.911 12.225C160.528 12.225 161.778 12.6917 162.661 13.625V7.45H167.411ZM159.911 22.45C160.728 22.45 161.403 22.1667 161.936 21.6C162.47 21.0167 162.736 20.2167 162.736 19.2C162.736 18.2 162.47 17.4167 161.936 16.85C161.42 16.2833 160.745 16 159.911 16C159.078 16 158.395 16.2833 157.861 16.85C157.328 17.4167 157.061 18.2 157.061 19.2C157.061 20.2167 157.328 21.0167 157.861 21.6C158.395 22.1667 159.078 22.45 159.911 22.45Z" fill="#EAEDF4"/>
<path d="M177.717 22.6C178.367 22.6 178.926 22.5083 179.392 22.325C179.876 22.1417 180.359 21.8417 180.842 21.425L183.317 24.025C182.034 25.4917 180.117 26.225 177.567 26.225C175.984 26.225 174.592 25.925 173.392 25.325C172.192 24.725 171.259 23.8917 170.592 22.825C169.942 21.7583 169.617 20.55 169.617 19.2C169.617 17.8667 169.942 16.675 170.592 15.625C171.242 14.5583 172.134 13.725 173.267 13.125C174.417 12.525 175.701 12.225 177.117 12.225C178.434 12.225 179.634 12.5 180.717 13.05C181.817 13.5833 182.692 14.375 183.342 15.425C183.992 16.4583 184.317 17.6917 184.317 19.125L174.642 20.975C175.159 22.0583 176.184 22.6 177.717 22.6ZM177.142 15.6C176.326 15.6 175.659 15.8583 175.142 16.375C174.626 16.875 174.334 17.6 174.267 18.55L179.767 17.475C179.601 16.9083 179.284 16.4583 178.817 16.125C178.351 15.775 177.792 15.6 177.142 15.6Z" fill="#EAEDF4"/>
<path d="M195.507 26.15C194.174 26.15 192.941 25.9333 191.807 25.5C190.691 25.05 189.716 24.425 188.882 23.625C188.066 22.825 187.424 21.8833 186.957 20.8C186.507 19.7167 186.282 18.5333 186.282 17.25C186.282 15.9667 186.507 14.7833 186.957 13.7C187.424 12.6167 188.074 11.675 188.907 10.875C189.741 10.075 190.716 9.45833 191.832 9.025C192.966 8.575 194.199 8.35 195.532 8.35C196.866 8.35 198.082 8.55833 199.182 8.975C200.299 9.39167 201.249 10.025 202.032 10.875L200.882 12.05C200.149 11.3167 199.341 10.7917 198.457 10.475C197.574 10.1583 196.624 10 195.607 10C194.524 10 193.524 10.1833 192.607 10.55C191.707 10.9 190.916 11.4083 190.232 12.075C189.566 12.725 189.041 13.4917 188.657 14.375C188.291 15.2417 188.107 16.2 188.107 17.25C188.107 18.2833 188.291 19.2417 188.657 20.125C189.041 21.0083 189.566 21.7833 190.232 22.45C190.916 23.1 191.707 23.6083 192.607 23.975C193.524 24.325 194.516 24.5 195.582 24.5C196.582 24.5 197.524 24.35 198.407 24.05C199.307 23.75 200.132 23.2417 200.882 22.525L201.932 23.925C201.099 24.6583 200.124 25.2167 199.007 25.6C197.891 25.9667 196.724 26.15 195.507 26.15ZM200.157 23.7V17.25H201.932V23.925L200.157 23.7Z" fill="#A8B7D1"/>
<path d="M213.568 26.125C212.418 26.125 211.385 25.8667 210.468 25.35C209.552 24.8167 208.827 24.05 208.293 23.05C207.76 22.05 207.493 20.8417 207.493 19.425C207.493 17.9917 207.76 16.7833 208.293 15.8C208.843 14.8 209.577 14.0417 210.493 13.525C211.41 13.0083 212.435 12.75 213.568 12.75C214.818 12.75 215.935 13.0333 216.918 13.6C217.918 14.15 218.702 14.925 219.268 15.925C219.835 16.925 220.118 18.0917 220.118 19.425C220.118 20.7417 219.835 21.9083 219.268 22.925C218.702 23.925 217.918 24.7083 216.918 25.275C215.935 25.8417 214.818 26.125 213.568 26.125ZM206.793 26V7.45H208.568V16.75L208.318 19.4L208.493 22.05V26H206.793ZM213.443 24.55C214.377 24.55 215.21 24.3417 215.943 23.925C216.677 23.4917 217.26 22.8917 217.693 22.125C218.127 21.3417 218.343 20.4417 218.343 19.425C218.343 18.3917 218.127 17.4917 217.693 16.725C217.26 15.9583 216.677 15.3667 215.943 14.95C215.21 14.5167 214.377 14.3 213.443 14.3C212.51 14.3 211.668 14.5167 210.918 14.95C210.185 15.3667 209.602 15.9583 209.168 16.725C208.752 17.4917 208.543 18.3917 208.543 19.425C208.543 20.4417 208.752 21.3417 209.168 22.125C209.602 22.8917 210.185 23.4917 210.918 23.925C211.668 24.3417 212.51 24.55 213.443 24.55Z" fill="#A8B7D1"/>
<path d="M231.889 26V23.1L231.814 22.625V17.775C231.814 16.6583 231.497 15.8 230.863 15.2C230.247 14.6 229.322 14.3 228.089 14.3C227.239 14.3 226.43 14.4417 225.663 14.725C224.897 15.0083 224.247 15.3833 223.714 15.85L222.913 14.525C223.58 13.9583 224.38 13.525 225.314 13.225C226.247 12.9083 227.23 12.75 228.264 12.75C229.964 12.75 231.272 13.175 232.189 14.025C233.122 14.8583 233.589 16.1333 233.589 17.85V26H231.889ZM227.363 26.125C226.38 26.125 225.522 25.9667 224.788 25.65C224.072 25.3167 223.522 24.8667 223.139 24.3C222.755 23.7167 222.564 23.05 222.564 22.3C222.564 21.6167 222.722 21 223.038 20.45C223.372 19.8833 223.905 19.4333 224.639 19.1C225.389 18.75 226.389 18.575 227.639 18.575H232.163V19.9H227.689C226.422 19.9 225.538 20.125 225.038 20.575C224.555 21.025 224.314 21.5833 224.314 22.25C224.314 23 224.605 23.6 225.189 24.05C225.772 24.5 226.589 24.725 227.639 24.725C228.639 24.725 229.497 24.5 230.214 24.05C230.947 23.5833 231.48 22.9167 231.814 22.05L232.214 23.275C231.88 24.1417 231.297 24.8333 230.464 25.35C229.647 25.8667 228.613 26.125 227.363 26.125Z" fill="#A8B7D1"/>
<path d="M243.635 26.125C242.385 26.125 241.26 25.8417 240.26 25.275C239.276 24.7083 238.501 23.925 237.935 22.925C237.368 21.9083 237.085 20.7417 237.085 19.425C237.085 18.0917 237.368 16.925 237.935 15.925C238.501 14.925 239.276 14.15 240.26 13.6C241.26 13.0333 242.385 12.75 243.635 12.75C244.785 12.75 245.81 13.0083 246.71 13.525C247.626 14.0417 248.351 14.8 248.885 15.8C249.435 16.7833 249.71 17.9917 249.71 19.425C249.71 20.8417 249.443 22.05 248.91 23.05C248.376 24.05 247.651 24.8167 246.735 25.35C245.835 25.8667 244.801 26.125 243.635 26.125ZM243.76 24.55C244.693 24.55 245.526 24.3417 246.26 23.925C247.01 23.4917 247.593 22.8917 248.01 22.125C248.443 21.3417 248.66 20.4417 248.66 19.425C248.66 18.3917 248.443 17.4917 248.01 16.725C247.593 15.9583 247.01 15.3667 246.26 14.95C245.526 14.5167 244.693 14.3 243.76 14.3C242.843 14.3 242.018 14.5167 241.285 14.95C240.551 15.3667 239.968 15.9583 239.535 16.725C239.101 17.4917 238.885 18.3917 238.885 19.425C238.885 20.4417 239.101 21.3417 239.535 22.125C239.968 22.8917 240.551 23.4917 241.285 23.925C242.018 24.3417 242.843 24.55 243.76 24.55ZM248.71 26V22.05L248.885 19.4L248.635 16.75V7.45H250.41V26H248.71Z" fill="#A8B7D1"/>
<path d="M263.578 26V23.1L263.503 22.625V17.775C263.503 16.6583 263.186 15.8 262.553 15.2C261.936 14.6 261.011 14.3 259.778 14.3C258.928 14.3 258.12 14.4417 257.353 14.725C256.586 15.0083 255.936 15.3833 255.403 15.85L254.603 14.525C255.27 13.9583 256.07 13.525 257.003 13.225C257.936 12.9083 258.92 12.75 259.953 12.75C261.653 12.75 262.961 13.175 263.878 14.025C264.811 14.8583 265.278 16.1333 265.278 17.85V26H263.578ZM259.053 26.125C258.07 26.125 257.211 25.9667 256.478 25.65C255.761 25.3167 255.211 24.8667 254.828 24.3C254.445 23.7167 254.253 23.05 254.253 22.3C254.253 21.6167 254.411 21 254.728 20.45C255.061 19.8833 255.595 19.4333 256.328 19.1C257.078 18.75 258.078 18.575 259.328 18.575H263.853V19.9H259.378C258.111 19.9 257.228 20.125 256.728 20.575C256.245 21.025 256.003 21.5833 256.003 22.25C256.003 23 256.295 23.6 256.878 24.05C257.461 24.5 258.278 24.725 259.328 24.725C260.328 24.725 261.186 24.5 261.903 24.05C262.636 23.5833 263.17 22.9167 263.503 22.05L263.903 23.275C263.57 24.1417 262.986 24.8333 262.153 25.35C261.336 25.8667 260.303 26.125 259.053 26.125Z" fill="#A8B7D1"/>
<path d="M286.499 12.75C287.566 12.75 288.491 12.9583 289.274 13.375C290.074 13.775 290.691 14.3917 291.124 15.225C291.574 16.0583 291.799 17.1083 291.799 18.375V26H290.024V18.55C290.024 17.1667 289.691 16.125 289.024 15.425C288.374 14.7083 287.449 14.35 286.249 14.35C285.349 14.35 284.566 14.5417 283.899 14.925C283.249 15.2917 282.741 15.8333 282.374 16.55C282.024 17.25 281.849 18.1 281.849 19.1V26H280.074V18.55C280.074 17.1667 279.741 16.125 279.074 15.425C278.407 14.7083 277.474 14.35 276.274 14.35C275.391 14.35 274.616 14.5417 273.949 14.925C273.282 15.2917 272.766 15.8333 272.399 16.55C272.049 17.25 271.874 18.1 271.874 19.1V26H270.099V12.875H271.799V16.425L271.524 15.8C271.924 14.85 272.566 14.1083 273.449 13.575C274.349 13.025 275.407 12.75 276.624 12.75C277.907 12.75 278.999 13.075 279.899 13.725C280.799 14.3583 281.382 15.3167 281.649 16.6L280.949 16.325C281.332 15.2583 282.007 14.4 282.974 13.75C283.957 13.0833 285.132 12.75 286.499 12.75Z" fill="#A8B7D1"/>
<path d="M301.963 26.125C300.696 26.125 299.554 25.8417 298.538 25.275C297.538 24.6917 296.746 23.9 296.163 22.9C295.579 21.8833 295.288 20.725 295.288 19.425C295.288 18.1083 295.579 16.95 296.163 15.95C296.746 14.95 297.538 14.1667 298.538 13.6C299.538 13.0333 300.679 12.75 301.963 12.75C303.263 12.75 304.413 13.0333 305.413 13.6C306.429 14.1667 307.221 14.95 307.788 15.95C308.371 16.95 308.663 18.1083 308.663 19.425C308.663 20.725 308.371 21.8833 307.788 22.9C307.221 23.9 306.429 24.6917 305.413 25.275C304.396 25.8417 303.246 26.125 301.963 26.125ZM301.963 24.55C302.913 24.55 303.754 24.3417 304.488 23.925C305.221 23.4917 305.796 22.8917 306.213 22.125C306.646 21.3417 306.863 20.4417 306.863 19.425C306.863 18.3917 306.646 17.4917 306.213 16.725C305.796 15.9583 305.221 15.3667 304.488 14.95C303.754 14.5167 302.921 14.3 301.988 14.3C301.054 14.3 300.221 14.5167 299.488 14.95C298.754 15.3667 298.171 15.9583 297.738 16.725C297.304 17.4917 297.088 18.3917 297.088 19.425C297.088 20.4417 297.304 21.3417 297.738 22.125C298.171 22.8917 298.754 23.4917 299.488 23.925C300.221 24.3417 301.046 24.55 301.963 24.55Z" fill="#A8B7D1"/>
<path d="M315.812 26.125C314.728 26.125 313.703 25.975 312.737 25.675C311.77 25.3583 311.012 24.9667 310.462 24.5L311.262 23.1C311.795 23.5 312.478 23.85 313.312 24.15C314.145 24.4333 315.02 24.575 315.937 24.575C317.187 24.575 318.087 24.3833 318.637 24C319.187 23.6 319.462 23.075 319.462 22.425C319.462 21.9417 319.303 21.5667 318.987 21.3C318.687 21.0167 318.287 20.8083 317.787 20.675C317.287 20.525 316.728 20.4 316.112 20.3C315.495 20.2 314.878 20.0833 314.262 19.95C313.662 19.8167 313.112 19.625 312.612 19.375C312.112 19.1083 311.703 18.75 311.387 18.3C311.087 17.85 310.937 17.25 310.937 16.5C310.937 15.7833 311.137 15.1417 311.537 14.575C311.937 14.0083 312.52 13.5667 313.287 13.25C314.07 12.9167 315.02 12.75 316.137 12.75C316.987 12.75 317.837 12.8667 318.687 13.1C319.537 13.3167 320.237 13.6083 320.787 13.975L320.012 15.4C319.428 15 318.803 14.7167 318.137 14.55C317.47 14.3667 316.803 14.275 316.137 14.275C314.953 14.275 314.078 14.4833 313.512 14.9C312.962 15.3 312.687 15.8167 312.687 16.45C312.687 16.95 312.837 17.3417 313.137 17.625C313.453 17.9083 313.862 18.1333 314.362 18.3C314.878 18.45 315.437 18.575 316.037 18.675C316.653 18.775 317.262 18.9 317.862 19.05C318.478 19.1833 319.037 19.375 319.537 19.625C320.053 19.8583 320.462 20.2 320.762 20.65C321.078 21.0833 321.237 21.6583 321.237 22.375C321.237 23.1417 321.02 23.8083 320.587 24.375C320.17 24.925 319.553 25.3583 318.737 25.675C317.937 25.975 316.962 26.125 315.812 26.125Z" fill="#A8B7D1"/>
<path d="M324.494 26V12.875H326.269V26H324.494ZM325.394 9.975C325.027 9.975 324.719 9.85 324.469 9.6C324.219 9.35 324.094 9.05 324.094 8.7C324.094 8.35 324.219 8.05833 324.469 7.825C324.719 7.575 325.027 7.45 325.394 7.45C325.76 7.45 326.069 7.56667 326.319 7.8C326.569 8.03333 326.694 8.325 326.694 8.675C326.694 9.04167 326.569 9.35 326.319 9.6C326.085 9.85 325.777 9.975 325.394 9.975Z" fill="#A8B7D1"/>
</svg>
