<?xml version="1.0" encoding="UTF-8"?>
<svg id="svg0.778265877192512" xmlns="http://www.w3.org/2000/svg" baseProfile="tiny" version="1.2" viewBox="0 0 845.9 872.5">
  <path id="a" d="M845.9,718.5v154h-69.3c-7-14-13-26.6-18.4-41-5.4-13.7-11.6-27-17.7-40.4-2.5-5.4-4.9-10.8-7.4-16.3-8.5-18.8-17.1-37.6-25.8-56.4q-111.5-1-225.2-1.9c-1.9,5.7-3.8,11.4-5.8,17.3-2.1,4.6-4.3,9.1-6.6,13.5-1.4,2.7-2.7,5.4-4.1,8.1-.7,1.5-1.5,2.9-2.3,4.4-4.7,9.1-9.2,18.3-13.8,27.5-1,2-2,4-3,6-2.1,4.1-4.1,8.2-6.2,12.3-2.1,4.2-4.2,8.3-6.3,12.5-3.1,6.1-6.1,12.2-9.2,18.3-.9,1.8-1.9,3.7-2.8,5.6-.9,1.7-1.7,3.5-2.7,5.3-.8,1.5-1.5,3-2.3,4.6-3.1,6.7-5.5,13.7-8.1,20.6h-165.5c2.5-7.4,4.3-13,7.9-19.6q1.2-2.2,2.4-4.4c.8-1.5,1.7-3.1,2.5-4.6,1.8-3.3,3.5-6.6,5.3-9.9q1.3-2.4,2.6-4.9c3.3-6.2,6.4-12.5,9.5-18.8,15.8-32,32.5-63.6,49.1-95.1,8.2-15.6,16.3-31.3,24.4-47,7.6-14.7,15.4-29.3,23.3-43.8h300.3q-21.5-47.4-43.1-94.7c-1.9-4.1-3.7-8.2-5.6-12.2-5.7-12.5-11.4-24.9-17.2-37.3-.9-2-1.8-3.9-2.8-6-1.7-3.6-3.3-7.1-5-10.7-.7-1.5-1.4-3.1-2.1-4.7-.6-1.3-1.2-2.6-1.8-4q-1.3-3.7-1.3-11.4h-3.8c-.2,1.4-.4,2.7-.7,4.1-1.4,6.1-3.6,11.2-6.2,16.9q-1.5,3.2-3,6.5c-1.1,2.2-2.1,4.5-3.2,6.8-1,2.2-2.1,4.4-3.1,6.7-4.3,9.2-8.6,18.4-13.2,27.4-2.5,5.1-4.7,9.9-6.6,15.2q-2.5,6.9-4.5,8.8c-4.3.2-8.5.2-12.8.2-1.3,0-2.7,0-4,0-4.4,0-8.9,0-13.3,0-3.1,0-6.1,0-9.2,0-8.1,0-16.1,0-24.2,0-8.2,0-16.5,0-24.7,0-16.2,0-32.3,0-48.5,0,3.3-10.6,7-20.4,12.1-30.3,1.4-2.7,2.7-5.4,4.1-8.1.8-1.5,1.6-3,2.4-4.6,4.7-9.3,9.3-18.6,13.9-27.9,3-6,6-12,9-18.1,3.7-7.5,7.4-14.9,11.2-22.4q24-48.2,36.2-70.9c5.6-10.4,10.7-20.9,15.7-31.6,10.2-21.5,20.8-42.8,31.5-64.1,2.2-4.4,4.4-8.8,6.6-13.3,11.1-22.5,22.8-44.7,34.4-66.9,5.1,5.1,7.6,11,10.7,17.3.7,1.4,1.3,2.7,2,4.1,2.2,4.4,4.3,8.8,6.5,13.2q1,2.1,2.1,4.3c4.2,8.6,8.4,17.2,12.6,25.9,2.1,4.4,4.3,8.8,6.4,13.2,6.6,13.7,13.3,27.3,19.3,41.3.5,1.2,1,2.4,1.6,3.7,1,2.4,2.1,4.8,3.1,7.2,5,11.7,10.3,23.1,16.1,34.5,9.3,18.1,17.1,36.8,25.1,55.5,5.4,12.6,11.1,25,17,37.4,6.5,13.6,12.7,27.3,18.9,41.1,6.5,14.5,13.1,29,19.7,43.5.8,1.7,1.5,3.4,2.3,5.1.7,1.5,1.4,3,2,4.5,2,4.4,3.8,8.9,5.6,13.4" fill="#eaedf4" stroke-width="0"/>
  <g id="g">
    <path d="M759.3,543.3c6.6-10.1,12.2-20.3,17.2-31.3.7-1.5,1.4-3,2-4.5,2.1-4.7,4.3-9.4,6.4-14.1,1.4-3.1,2.8-6.1,4.2-9.2,7.6-16.7,15.1-33.4,22.5-50.2,6-13.5,12.1-26.8,18.2-40.2q1.2-2.6,2.4-5.2t2.1-4.6c2.1-4.6,4-9.3,5.8-14.1h5.8v348.4l-86.6-175.2Z" fill="#a8b7d1" stroke-width="0"/>
    <path d="M437.9,0c4.8,0,9.7,0,14.5,0,110.9-.1,219.5,49.1,298.2,126.4q89.6,91.1,89.6,128.2c-19.1.4-38.2.7-57.4.9-8.9,0-17.8.2-26.6.4-8.6.2-17.1.3-25.7.3-3.3,0-6.5,0-9.8.2q-25.6.7-33.2-5.6c-3-4.4-5.1-8.6-7.1-13.6-1.4-2.2-2.9-4.4-4.4-6.5-1.3-1.9-2.7-3.9-4-5.9-44.6-64.3-102.8-96.2-178.3-112.7-13.7-2.4-27.4-2.3-41.3-2.3-4,0-8,0-12,0-78.1-.3-153.4,32.2-210.1,85.1-3.8,3.5-7.6,6.7-11.6,10-56,49-93.2,130.2-98.4,203.7-3.8,77.5,16.5,157.7,65.4,219.4q1.9,2.4,3.8,4.9,14.3,20.2,32.8,35.5v3.8c1,.4,2,.9,3.1,1.3,6.2,3.4,11.4,7.9,16.9,12.4,13.1,10.5,26.8,18.9,41.6,26.7-1.2,8.5-4.4,15.4-8.3,22.9-.7,1.3-1.3,2.6-2,4-2.3,4.5-4.7,9.1-7,13.6-.9,1.8-1.8,3.6-2.8,5.4-10.4,20.1-20.9,40.2-31.8,60-6.1-1-11.1-2.3-16.6-5.4q-1.9-1-3.8-2.1c-1.3-.8-2.6-1.5-4-2.3q-2-1.2-4.1-2.4c-17.5-10.2-33-22-47.9-35.7-3.9-3.6-7.9-7.1-11.9-10.5-7.1-6.2-13.8-12.7-20.5-19.2q-1.6-1.5-3.2-3.1c-2.6-2.5-5-5.2-7.4-7.9v-3.8h-3.8c-3.9-4.5-7.5-9.1-11.1-13.8-1.1-1.5-2.2-2.9-3.3-4.4C22.3,611.3-12.3,497.3,4,376.7c2.8-18.6,7.1-36.7,12.3-54.7.6-2.3,1.3-4.6,1.9-7,10.7-35.4,28-69.7,48.1-100.7q1.6-2.7,3.2-5.4c16.2-26.5,35.5-50.1,57.1-72.2,2.9-3,5.8-6,8.6-9,18.5-19.2,39.7-35.3,61.9-50.1q2.9-2,6-4c26.9-17.8,54.3-32.8,84.5-44.1,3.2-1.4,6.4-2.8,9.6-4.2,10.5-4.3,21.4-6,32.5-7.9q6.2-.8,9.9-5.2c5.2-1.5,10.3-2.7,15.6-3.8q2.1-.5,4.2-1C385.5,1.5,411.3-.1,437.9,0Z" fill="#a8b7d1" stroke-width="0"/>
  </g>
</svg>